<svg width="119" height="31" viewBox="0 0 119 31" fill="none" xmlns="http://www.w3.org/2000/svg">
<path d="M89.8755 26.9707V12.3676H94.5134V13.7095C94.8723 13.1306 96.1698 11.9729 98.4888 11.9729C100.808 11.9729 102.16 13.2359 102.547 13.8674C103.789 12.1308 105.887 11.9466 107.102 11.9729C111.492 11.9729 112.817 15.7618 112.817 17.8931V26.9707H108.179V18.1299C108.179 17.5773 107.881 15.9986 106.025 15.9986C104.17 15.9986 103.624 17.5773 103.624 18.4456V26.9707H98.9857V18.1299C98.9857 17.1037 98.5385 15.9986 96.7496 15.9986C94.9606 15.9986 94.5134 17.5773 94.5134 18.4456V26.9707H89.8755Z" fill="#076787"/>
<path d="M15.7578 15.4607V8.44092H0.757812V22.5586H8.29879V15.4607H15.7578Z" fill="#076787"/>
<rect x="7.81738" y="22.5586" width="7.94117" height="7.94117" fill="#076787"/>
<rect x="22.8174" y="22.5586" width="7.94117" height="7.94117" fill="#076787"/>
<path fill-rule="evenodd" clip-rule="evenodd" d="M15.7578 0.5H30.6758V8.04098H15.7578V0.5ZM38.0526 15.4182H38.0531V22.9592H30.676V15.5824H23.1346V8.04144H38.0526V15.4182Z" fill="#076787"/>
<path d="M50.5711 13.9519L46.7539 5.79443H41.3462L48.2649 18.8134V26.9709H52.9569V18.8134L59.8756 5.79443H54.4679L50.5711 13.9519Z" fill="#076787"/>
<path d="M73.1109 19.9119C73.1109 24.2977 69.5555 27.853 65.1697 27.853C60.7839 27.853 57.2285 24.2977 57.2285 19.9119C57.2285 15.5261 60.7839 11.9707 65.1697 11.9707C69.5555 11.9707 73.1109 15.5261 73.1109 19.9119ZM61.6305 19.9119C61.6305 21.8665 63.215 23.4511 65.1697 23.4511C67.1243 23.4511 68.573 21.8665 68.573 19.9119C68.573 17.9572 67.1243 16.3727 65.1697 16.3727C63.215 16.3727 61.6305 17.9572 61.6305 19.9119Z" fill="#076787"/>
<path d="M88.9932 19.9119C88.9932 24.2977 85.4378 27.853 81.052 27.853C76.6662 27.853 73.1108 24.2977 73.1108 19.9119C73.1108 15.5261 76.6662 11.9707 81.052 11.9707C85.4378 11.9707 88.9932 15.5261 88.9932 19.9119ZM77.5128 19.9119C77.5128 21.8665 79.0974 23.4511 81.052 23.4511C83.0067 23.4511 84.4554 21.8665 84.4554 19.9119C84.4554 17.9572 83.0067 16.3727 81.052 16.3727C79.0974 16.3727 77.5128 17.9572 77.5128 19.9119Z" fill="#076787"/>
<rect x="113.699" y="11.9707" width="5.29411" height="15" fill="#076787"/>
<ellipse cx="116.346" cy="8.44149" rx="2.64706" ry="2.64706" fill="#076787"/>
</svg>
