<svg width="56" height="56" viewBox="0 0 56 56" fill="none" xmlns="http://www.w3.org/2000/svg">
    <path d="M37.5025 34.9859C38.5175 36.0359 40.1975 36.0359 41.2125 35.0209C42.2625 33.9709 42.2625 32.3259 41.2125 31.3109L29.0675 19.0959C28.5775 18.6059 27.9125 18.3259 27.2125 18.3259C26.5125 18.3259 25.8475 18.6059 25.3575 19.0959L13.2125 31.3109C12.6875 31.8009 12.4425 32.4659 12.4425 33.1309C12.4425 33.8309 12.6875 34.4959 13.2125 35.0209C14.2625 36.0359 15.9075 36.0359 16.9225 34.9859L27.2125 24.6609L37.5025 34.9859Z" fill="#3C278D"/>
    <path d="M37.5025 34.9859C38.5175 36.0359 40.1975 36.0359 41.2125 35.0209C42.2625 33.9709 42.2625 32.3259 41.2125 31.3109L29.0675 19.0959C28.5775 18.6059 27.9125 18.3259 27.2125 18.3259C26.5125 18.3259 25.8475 18.6059 25.3575 19.0959L13.2125 31.3109C12.6875 31.8009 12.4425 32.4659 12.4425 33.1309C12.4425 33.8309 12.6875 34.4959 13.2125 35.0209C14.2625 36.0359 15.9075 36.0359 16.9225 34.9859L27.2125 24.6609L37.5025 34.9859Z" fill="#3C278D"/>
    </svg>
    