<svg width="36" height="36" viewBox="0 0 36 36" fill="none" xmlns="http://www.w3.org/2000/svg">
<g id="Arrow - Down Circle">
<g id="Vector">
<path d="M24.1088 22.4909C24.7613 23.1659 25.8413 23.1659 26.4938 22.5134C27.1687 21.8384 27.1687 20.7809 26.4938 20.1284L18.6863 12.2759C18.3713 11.9609 17.9438 11.7809 17.4938 11.7809C17.0438 11.7809 16.6163 11.9609 16.3013 12.2759L8.49378 20.1284C8.15628 20.4434 7.99878 20.8709 7.99878 21.2984C7.99878 21.7484 8.15628 22.1759 8.49378 22.5134C9.16878 23.1659 10.2263 23.1659 10.8788 22.4909L17.4938 15.8534L24.1088 22.4909Z" fill="#3C278D"/>
<path d="M24.1088 22.4909C24.7613 23.1659 25.8413 23.1659 26.4938 22.5134C27.1687 21.8384 27.1687 20.7809 26.4938 20.1284L18.6863 12.2759C18.3713 11.9609 17.9438 11.7809 17.4938 11.7809C17.0438 11.7809 16.6163 11.9609 16.3013 12.2759L8.49378 20.1284C8.15628 20.4434 7.99878 20.8709 7.99878 21.2984C7.99878 21.7484 8.15628 22.1759 8.49378 22.5134C9.16878 23.1659 10.2263 23.1659 10.8788 22.4909L17.4938 15.8534L24.1088 22.4909Z" fill="#3C278D"/>
</g>
</g>
</svg>
