<svg width="36" height="36" viewBox="0 0 36 36" fill="none" xmlns="http://www.w3.org/2000/svg">
<circle cx="17.795" cy="17.795" r="17.795" fill="#3C278D"/>
<path d="M10.4091 23V11.3636H14.4773C15.2879 11.3636 15.9564 11.5038 16.483 11.7841C17.0095 12.0606 17.4015 12.4337 17.6591 12.9034C17.9167 13.3693 18.0455 13.8864 18.0455 14.4545C18.0455 14.9545 17.9564 15.3674 17.7784 15.6932C17.6042 16.0189 17.3731 16.2765 17.0852 16.4659C16.8011 16.6553 16.4924 16.7955 16.1591 16.8864V17C16.5152 17.0227 16.8731 17.1477 17.233 17.375C17.5928 17.6023 17.8939 17.928 18.1364 18.3523C18.3788 18.7765 18.5 19.2955 18.5 19.9091C18.5 20.4924 18.3674 21.017 18.1023 21.483C17.8371 21.9489 17.4186 22.3182 16.8466 22.5909C16.2746 22.8636 15.5303 23 14.6136 23H10.4091ZM11.8182 21.75H14.6136C15.5341 21.75 16.1875 21.572 16.5739 21.2159C16.964 20.8561 17.1591 20.4205 17.1591 19.9091C17.1591 19.5152 17.0587 19.1515 16.858 18.8182C16.6572 18.4811 16.3712 18.2121 16 18.0114C15.6288 17.8068 15.1894 17.7045 14.6818 17.7045H11.8182V21.75ZM11.8182 16.4773H14.4318C14.8561 16.4773 15.2386 16.3939 15.5795 16.2273C15.9242 16.0606 16.197 15.8258 16.3977 15.5227C16.6023 15.2197 16.7045 14.8636 16.7045 14.4545C16.7045 13.9432 16.5265 13.5095 16.1705 13.1534C15.8144 12.7936 15.25 12.6136 14.4773 12.6136H11.8182V16.4773ZM24.2926 23.1818C23.4517 23.1818 22.7263 22.9962 22.1165 22.625C21.5104 22.25 21.0426 21.7273 20.7131 21.0568C20.3873 20.3826 20.2244 19.5985 20.2244 18.7045C20.2244 17.8106 20.3873 17.0227 20.7131 16.3409C21.0426 15.6553 21.5009 15.1212 22.0881 14.7386C22.679 14.3523 23.3684 14.1591 24.1562 14.1591C24.6108 14.1591 25.0597 14.2348 25.5028 14.3864C25.946 14.5379 26.3494 14.7841 26.7131 15.125C27.0767 15.4621 27.3665 15.9091 27.5824 16.4659C27.7983 17.0227 27.9062 17.7083 27.9062 18.5227V19.0909H21.179V17.9318H26.5426C26.5426 17.4394 26.4441 17 26.2472 16.6136C26.054 16.2273 25.7775 15.9223 25.4176 15.6989C25.0616 15.4754 24.6411 15.3636 24.1562 15.3636C23.6222 15.3636 23.16 15.4962 22.7699 15.7614C22.3835 16.0227 22.0862 16.3636 21.8778 16.7841C21.6695 17.2045 21.5653 17.6553 21.5653 18.1364V18.9091C21.5653 19.5682 21.679 20.1269 21.9062 20.5852C22.1373 21.0398 22.4574 21.3864 22.8665 21.625C23.2756 21.8598 23.7509 21.9773 24.2926 21.9773C24.6449 21.9773 24.9631 21.928 25.2472 21.8295C25.535 21.7273 25.7831 21.5758 25.9915 21.375C26.1998 21.1705 26.3608 20.9167 26.4744 20.6136L27.7699 20.9773C27.6335 21.4167 27.4044 21.803 27.0824 22.1364C26.7604 22.4659 26.3627 22.7235 25.8892 22.9091C25.4157 23.0909 24.8835 23.1818 24.2926 23.1818Z" fill="white"/>
</svg>
