<svg width="34" height="32" viewBox="0 0 34 32" fill="none" xmlns="http://www.w3.org/2000/svg">
<ellipse cx="17.0026" cy="15.9614" rx="17.0026" ry="15.9614" fill="#3C278D"/>
<path d="M7.40909 22V10.3636H11.4773C12.2879 10.3636 12.9564 10.5038 13.483 10.7841C14.0095 11.0606 14.4015 11.4337 14.6591 11.9034C14.9167 12.3693 15.0455 12.8864 15.0455 13.4545C15.0455 13.9545 14.9564 14.3674 14.7784 14.6932C14.6042 15.0189 14.3731 15.2765 14.0852 15.4659C13.8011 15.6553 13.4924 15.7955 13.1591 15.8864V16C13.5152 16.0227 13.8731 16.1477 14.233 16.375C14.5928 16.6023 14.8939 16.928 15.1364 17.3523C15.3788 17.7765 15.5 18.2955 15.5 18.9091C15.5 19.4924 15.3674 20.017 15.1023 20.483C14.8371 20.9489 14.4186 21.3182 13.8466 21.5909C13.2746 21.8636 12.5303 22 11.6136 22H7.40909ZM8.81818 20.75H11.6136C12.5341 20.75 13.1875 20.572 13.5739 20.2159C13.964 19.8561 14.1591 19.4205 14.1591 18.9091C14.1591 18.5152 14.0587 18.1515 13.858 17.8182C13.6572 17.4811 13.3712 17.2121 13 17.0114C12.6288 16.8068 12.1894 16.7045 11.6818 16.7045H8.81818V20.75ZM8.81818 15.4773H11.4318C11.8561 15.4773 12.2386 15.3939 12.5795 15.2273C12.9242 15.0606 13.197 14.8258 13.3977 14.5227C13.6023 14.2197 13.7045 13.8636 13.7045 13.4545C13.7045 12.9432 13.5265 12.5095 13.1705 12.1534C12.8144 11.7936 12.25 11.6136 11.4773 11.6136H8.81818V15.4773ZM21.2926 22.1818C20.4517 22.1818 19.7263 21.9962 19.1165 21.625C18.5104 21.25 18.0426 20.7273 17.7131 20.0568C17.3873 19.3826 17.2244 18.5985 17.2244 17.7045C17.2244 16.8106 17.3873 16.0227 17.7131 15.3409C18.0426 14.6553 18.5009 14.1212 19.0881 13.7386C19.679 13.3523 20.3684 13.1591 21.1562 13.1591C21.6108 13.1591 22.0597 13.2348 22.5028 13.3864C22.946 13.5379 23.3494 13.7841 23.7131 14.125C24.0767 14.4621 24.3665 14.9091 24.5824 15.4659C24.7983 16.0227 24.9062 16.7083 24.9062 17.5227V18.0909H18.179V16.9318H23.5426C23.5426 16.4394 23.4441 16 23.2472 15.6136C23.054 15.2273 22.7775 14.9223 22.4176 14.6989C22.0616 14.4754 21.6411 14.3636 21.1562 14.3636C20.6222 14.3636 20.16 14.4962 19.7699 14.7614C19.3835 15.0227 19.0862 15.3636 18.8778 15.7841C18.6695 16.2045 18.5653 16.6553 18.5653 17.1364V17.9091C18.5653 18.5682 18.679 19.1269 18.9062 19.5852C19.1373 20.0398 19.4574 20.3864 19.8665 20.625C20.2756 20.8598 20.7509 20.9773 21.2926 20.9773C21.6449 20.9773 21.9631 20.928 22.2472 20.8295C22.535 20.7273 22.7831 20.5758 22.9915 20.375C23.1998 20.1705 23.3608 19.9167 23.4744 19.6136L24.7699 19.9773C24.6335 20.4167 24.4044 20.803 24.0824 21.1364C23.7604 21.4659 23.3627 21.7235 22.8892 21.9091C22.4157 22.0909 21.8835 22.1818 21.2926 22.1818Z" fill="white"/>
</svg>
