<svg width="37" height="36" viewBox="0 0 37 36" fill="none" xmlns="http://www.w3.org/2000/svg">
<g clip-path="url(#clip0_1_723)">
<rect x="10.0461" y="8.32959" width="19.6881" height="16.6591" fill="white"/>
<path d="M19.5571 0C10.1222 0 2.47388 7.64829 2.47388 17.0832C2.47388 26.5181 10.1222 34.1664 19.5571 34.1664C28.992 34.1664 36.6403 26.5181 36.6403 17.0832C36.6403 7.64829 28.992 0 19.5571 0ZM23.6037 11.8052H21.0358C20.7315 11.8052 20.3934 12.2056 20.3934 12.7377V14.5919H23.6054L23.1196 17.2362H20.3934V25.1746H17.363V17.2362H14.6136V14.5919H17.363V13.0366C17.363 10.8051 18.9111 8.99181 21.0358 8.99181H23.6037V11.8052Z" fill="#3C278D"/>
</g>
<defs>
<clipPath id="clip0_1_723">
<rect width="35.59" height="35.59" fill="white" transform="translate(0.959229)"/>
</clipPath>
</defs>
</svg>
