<svg width="39" height="35" viewBox="0 0 39 35" fill="none" xmlns="http://www.w3.org/2000/svg">
<g clip-path="url(#clip0_1_723)">
<rect x="10.449" y="8.16626" width="20.5612" height="16.3326" fill="white"/>
<path d="M20.3818 0C10.5285 0 2.54102 7.49839 2.54102 16.7484C2.54102 25.9984 10.5285 33.4968 20.3818 33.4968C30.2352 33.4968 38.2226 25.9984 38.2226 16.7484C38.2226 7.49839 30.2352 0 20.3818 0ZM24.6079 11.5738H21.9262C21.6084 11.5738 21.2553 11.9664 21.2553 12.488V14.3059H24.6097L24.1024 16.8984H21.2553V24.6812H18.0904V16.8984H15.2191V14.3059H18.0904V12.7811C18.0904 10.5934 19.7072 8.81558 21.9262 8.81558H24.6079V11.5738Z" fill="#3C278D"/>
</g>
<defs>
<clipPath id="clip0_1_723">
<rect width="37.1684" height="34.8925" fill="white" transform="translate(0.959229)"/>
</clipPath>
</defs>
</svg>
