<svg width="35" height="35" viewBox="0 0 35 35" fill="none" xmlns="http://www.w3.org/2000/svg">
<path d="M17.0816 0C7.64759 0 0 7.64829 0 17.0832C0 26.5181 7.64759 34.1664 17.0816 34.1664C26.5157 34.1664 34.1633 26.5181 34.1633 17.0832C34.1633 7.64829 26.5157 0 17.0816 0ZM24.0299 13.994C24.0371 14.1399 24.0388 14.2858 24.0388 14.4282C24.0388 18.8769 20.6563 24.0037 14.4678 24.0037C12.6392 24.0067 10.8486 23.4815 9.31127 22.4911C9.57283 22.5231 9.84151 22.5356 10.1137 22.5356C11.6902 22.5356 13.1404 22 14.2916 21.096C13.5901 21.0822 12.9103 20.8499 12.347 20.4314C11.7837 20.0129 11.3651 19.429 11.1493 18.7613C11.6532 18.8571 12.1722 18.837 12.6671 18.7025C11.9056 18.5486 11.2208 18.1359 10.7289 17.5346C10.2369 16.9333 9.96803 16.1803 9.96784 15.4034V15.3624C10.4216 15.6133 10.9411 15.7664 11.4927 15.7842C10.7789 15.3089 10.2735 14.5789 10.08 13.7433C9.88654 12.9078 10.0195 12.0299 10.4518 11.2891C11.2969 12.3284 12.3508 13.1785 13.5453 13.7846C14.7398 14.3906 16.0482 14.739 17.3859 14.8072C17.2158 14.0853 17.289 13.3274 17.5941 12.6514C17.8992 11.9753 18.419 11.419 19.0728 11.069C19.7267 10.7189 20.4778 10.5947 21.2095 10.7156C21.9412 10.8365 22.6125 11.1958 23.1189 11.7376C23.8719 11.5886 24.594 11.3124 25.2541 10.9208C25.0032 11.7005 24.4778 12.3625 23.7755 12.7839C24.4425 12.7036 25.0938 12.5243 25.7079 12.2519C25.2568 12.9279 24.6885 13.5179 24.0299 13.994Z" fill="#3C278D"/>
</svg>
