<svg width="36" height="34" viewBox="0 0 36 34" fill="none" xmlns="http://www.w3.org/2000/svg">
<rect x="7.9082" y="8.16626" width="20.5612" height="16.3326" fill="white"/>
<path d="M17.7935 0.667969C8.3595 0.667969 0.711914 7.84728 0.711914 16.7037C0.711914 25.56 8.3595 32.7393 17.7935 32.7393C27.2276 32.7393 34.8752 25.56 34.8752 16.7037C34.8752 7.84728 27.2276 0.667969 17.7935 0.667969ZM24.7419 13.8039C24.749 13.9408 24.7508 14.0778 24.7508 14.2114C24.7508 18.3874 21.3682 23.1998 15.1797 23.1998C13.3511 23.2026 11.5605 22.7096 10.0232 21.7799C10.2847 21.81 10.5534 21.8217 10.8257 21.8217C12.4022 21.8217 13.8523 21.3189 15.0035 20.4704C14.302 20.4574 13.6222 20.2393 13.0589 19.8465C12.4957 19.4537 12.077 18.9056 11.8612 18.2788C12.3651 18.3688 12.8841 18.3499 13.379 18.2237C12.6175 18.0792 11.9328 17.6918 11.4408 17.1274C10.9488 16.5629 10.6799 15.8561 10.6798 15.1268V15.0884C11.1335 15.3239 11.6531 15.4676 12.2046 15.4843C11.4908 15.0382 10.9854 14.3529 10.7919 13.5686C10.5984 12.7843 10.7315 11.9602 11.1637 11.2649C12.0088 12.2404 13.0628 13.0384 14.2572 13.6073C15.4517 14.1762 16.7601 14.5032 18.0978 14.5672C17.9277 13.8896 18.0009 13.1782 18.306 12.5436C18.6111 11.909 19.1309 11.3868 19.7847 11.0582C20.4386 10.7296 21.1897 10.613 21.9214 10.7265C22.6531 10.84 23.3244 11.1772 23.8308 11.6858C24.5838 11.546 25.3059 11.2867 25.966 10.9191C25.7151 11.651 25.1897 12.2724 24.4874 12.668C25.1544 12.5926 25.8057 12.4243 26.4198 12.1686C25.9687 12.8031 25.4004 13.3569 24.7419 13.8039Z" fill="#3C278D"/>
</svg>
